<svg id="Layer_1" data-name="Layer 1" xmlns="http://www.w3.org/2000/svg" xmlns:xlink="http://www.w3.org/1999/xlink" viewBox="0 0 4863.77 4743.75"><defs><style>.cls-1{fill:#f4eddf;}.cls-2{fill:#ec1c24;}.cls-3{fill:#36a131;}.cls-4{opacity:0.35;}.cls-5{fill:#369731;}.cls-6{fill:#98c325;}.cls-7{fill:url(#radial-gradient);}.cls-14,.cls-8{fill:#fff;}.cls-10,.cls-18,.cls-8,.cls-9{stroke:#231f20;}.cls-10,.cls-18,.cls-8{stroke-miterlimit:10;stroke-width:0.83px;}.cls-10,.cls-9{fill:#231f20;}.cls-9{stroke-miterlimit:10;stroke-width:0.83px;}.cls-11{fill:#c49a6c;}.cls-12{fill:#006838;}.cls-13,.cls-16{fill:#e6e7e8;}.cls-15,.cls-16{opacity:0.55;}.cls-16{isolation:isolate;}.cls-17{fill:url(#radial-gradient-2);}.cls-18{fill:#f7941d;}.cls-19{fill:#3c2415;}.cls-20{fill:#008438;}.cls-21{fill:#009444;}.cls-22{fill:#be1e2d;}</style><radialGradient id="radial-gradient" cx="1774.57" cy="3155.39" r="413.6" gradientTransform="matrix(1.12, 0, 0, -1.09, -359.76, 5024.69)" gradientUnits="userSpaceOnUse"><stop offset="0.01" stop-color="#dee3e6"/><stop offset="0.25" stop-color="#fffde5"/><stop offset="0.4" stop-color="#f0ecd8"/><stop offset="0.6" stop-color="#d6cdc1"/><stop offset="0.79" stop-color="#ededee"/><stop offset="1" stop-color="#d8d5bb"/></radialGradient><radialGradient id="radial-gradient-2" cx="3146.43" cy="3308.75" r="558.5" xlink:href="#radial-gradient"/></defs><ellipse class="cls-1" cx="2431.88" cy="2371.87" rx="2431.88" ry="2371.87"/><path class="cls-2" d="M4576.82,2447.06q0,26.05-.65,52-1.77,68.85-8.09,136.51a2004.47,2004.47,0,0,1-47.93,287.29q-5.28,21.79-11.06,43.4-20.9,78.48-47.9,154.41-5.41,15.27-11.06,30.39-22.14,59.37-47.92,117-5.43,12.21-11.06,24.32-22.66,49.08-47.91,96.75-5.46,10.35-11.06,20.61-23,42.28-47.9,83.37-5.47,9.06-11.06,18-23.18,37.33-47.91,73.62-5.49,8.07-11.06,16.08-23.31,33.52-47.92,66.06c-3.65,4.85-7.36,9.69-11.06,14.51q-23.4,30.38-47.9,59.89-5.51,6.63-11.07,13.21-23.45,27.8-47.9,54.76-5.51,6.09-11.06,12.12-23.53,25.55-47.93,50.33-5.49,5.61-11,11.16-23.58,23.6-47.92,46.46-5.49,5.2-11.05,10.32-23.61,21.86-47.91,43-5.52,4.82-11.05,9.56-23.66,20.32-47.93,39.92-5.51,4.48-11.06,8.89-23.67,18.87-47.91,37.09c-3.67,2.76-7.36,5.52-11.06,8.24q-23.7,17.6-47.9,34.49-5.51,3.86-11.06,7.68-23.73,16.36-47.92,32.08-5.52,3.6-11.06,7.15-23.75,15.23-47.91,29.82-5.51,3.34-11.06,6.65-23.74,14.15-47.9,27.69c-3.67,2.08-7.36,4.13-11.06,6.19q-23.76,13.14-47.91,25.7c-3.67,1.92-7.38,3.82-11.06,5.71q-23.79,12.21-47.92,23.82-5.51,2.67-11.06,5.29-23.76,11.3-47.9,22-5.51,2.47-11.06,4.87-23.79,10.46-47.93,20.28c-3.67,1.52-7.36,3-11,4.49q-23.82,9.59-47.93,18.61-5.51,2.07-11.05,4.1-23.84,8.78-47.93,17l-11,3.73q-24.54,8.22-49.37,15.86c-3.2,1-6.42,2-9.62,2.95q-23.84,7.22-47.91,13.9c-3.67,1-7.37,2-11.06,3q-23.84,6.49-47.91,12.43-5.51,1.39-11.06,2.71-23.83,5.77-47.9,11c-3.67.81-7.36,1.59-11.06,2.37Q2893,4463,2869,4467.5q-5.52,1-11.06,2.05-23.85,4.36-47.91,8.19-5.53.92-11.06,1.74-23.86,3.69-47.9,6.85c-3.69.47-7.37.95-11.06,1.41q-23.88,3-47.91,5.5l-11.06,1.11q-23.9,2.35-47.92,4.18c-3.69.28-7.36.55-11.06.8q-23.88,1.71-47.91,2.88l-11,.51q-23.9,1-47.93,1.56c-3.67.09-7.36.16-11,.22q-18.51.32-37.1.31-5.41,0-10.83,0c-3.69,0-7.36,0-11.05-.09q-24-.21-47.91-1c-3.69-.11-7.37-.24-11.06-.37q-24-.87-47.92-2.29c-3.68-.21-7.37-.43-11.06-.68q-24-1.53-47.91-3.59-5.53-.47-11.06-1-24-2.18-47.9-4.9l-11.06-1.28q-24-2.85-47.91-6.24-5.53-.78-11.06-1.6-24-3.53-47.92-7.58c-3.68-.63-7.37-1.26-11.06-1.92q-24-4.19-47.9-8.94-5.52-1.09-11.06-2.23-24.06-4.92-47.91-10.37-5.54-1.24-11.06-2.56-24.06-5.61-47.91-11.78c-3.69-1-7.38-1.92-11.06-2.88q-24.09-6.36-47.93-13.26c-3.69-1.05-7.36-2.14-11-3.22q-24.09-7.09-47.93-14.76-5.54-1.76-11-3.58-24.1-7.84-47.93-16.28-5.55-2-11.06-3.94-24.11-8.66-47.91-17.88-5.55-2.13-11.06-4.31-24.09-9.46-47.9-19.52-5.53-2.33-11.06-4.7-24.1-10.31-47.92-21.21-5.52-2.52-11.06-5.11-24.12-11.19-47.91-23-5.55-2.74-11.06-5.53-24.13-12.12-47.9-24.86-5.55-2.94-11.06-6-24.15-13.08-47.91-26.8-5.55-3.19-11.06-6.44-24.18-14.1-47.92-28.87c-3.7-2.27-7.39-4.59-11.06-6.91q-24.18-15.2-47.9-31-5.52-3.69-11.06-7.44-24.2-16.36-47.93-33.4-5.52-4-11-8-24.24-17.64-47.93-35.93-5.54-4.26-11-8.58-24.27-19-47.93-38.64-5.53-4.57-11-9.23-24.3-20.44-47.93-41.61-5.57-5-11.06-10-24.31-22.07-47.92-44.87c-3.7-3.58-7.37-7.18-11.06-10.77q-24.36-23.9-47.91-48.58c-3.72-3.88-7.41-7.75-11.06-11.66Q887.44,3811.73,864,3785q-5.58-6.33-11.06-12.7-24.51-28.33-47.92-57.51-5.57-6.93-11.06-13.9-24.57-31.12-47.91-63.18-5.58-7.63-11.06-15.34-24.69-34.5-47.9-70-5.58-8.52-11.06-17.08-24.82-38.8-47.92-78.72-5.6-9.65-11.06-19.38Q592,3392.71,569.11,3347q-5.6-11.21-11.06-22.51-25.49-52.57-47.91-106.75-5.62-13.54-11.05-27.19-26.25-66.11-47.93-134.34-5.69-17.93-11-36a1999.57,1999.57,0,0,1-47.93-197.93q-6-31.93-11.05-64.2a2020.47,2020.47,0,0,1-23.29-259q-.66-25.89-.66-52t.66-52a2020.63,2020.63,0,0,1,23.29-259q5-32.27,11.05-64.2A1996.57,1996.57,0,0,1,440.12,1874q5.34-18.06,11-36,21.61-68.22,47.93-134.34,5.42-13.64,11.05-27.19,22.44-54.17,47.91-106.75,5.44-11.3,11.06-22.51Q591.94,1501.45,617,1457q5.47-9.72,11.06-19.38,23.08-39.91,47.92-78.72,5.49-8.57,11.06-17.07,23.22-35.5,47.9-70,5.47-7.69,11.06-15.33,23.33-32.06,47.91-63.18,5.49-7,11.06-13.9,23.43-29.19,47.92-57.52,5.48-6.37,11.06-12.7,23.46-26.75,47.9-52.71,5.48-5.85,11.06-11.66,23.54-24.68,47.91-48.57c3.69-3.6,7.36-7.2,11.06-10.78q23.58-22.8,47.92-44.87,5.51-5,11.06-10,23.63-21.18,47.93-41.61,5.51-4.65,11-9.22,52-43.24,106.9-83.15,5.51-4,11-8,23.73-17,47.93-33.41l11.06-7.44q23.73-15.85,47.9-31c3.67-2.32,7.36-4.64,11.06-6.91q23.74-14.76,47.92-28.87,5.5-3.26,11.06-6.43,23.74-13.71,47.91-26.81,5.51-3,11.06-6,23.77-12.72,47.9-24.86,5.51-2.79,11.06-5.53,23.79-11.79,47.91-23,5.54-2.6,11.06-5.11,23.79-10.9,47.92-21.22,5.54-2.39,11.06-4.7,23.81-10.05,47.9-19.52,5.51-2.16,11.06-4.31,23.81-9.22,47.91-17.88c3.67-1.32,7.36-2.64,11.06-3.93q23.84-8.43,47.93-16.29,5.5-1.83,11-3.58,23.84-7.67,47.93-14.76c3.67-1.08,7.34-2.17,11-3.22q23.85-6.88,47.93-13.26c3.68-1,7.37-1.93,11.06-2.88q23.83-6.17,47.91-11.78,5.54-1.32,11.06-2.56,23.86-5.46,47.91-10.37,5.54-1.14,11.06-2.23,23.87-4.74,47.9-8.94,5.53-1,11.06-1.92,23.87-4.05,47.92-7.58,5.52-.83,11.06-1.6,23.88-3.39,47.91-6.24l11.06-1.28q23.86-2.72,47.9-4.9,5.53-.53,11.06-1,23.88-2.06,47.91-3.58c3.69-.26,7.38-.48,11.06-.69q23.89-1.39,47.92-2.29c3.69-.13,7.37-.26,11.06-.37q23.89-.78,47.91-1c3.69-.05,7.36-.08,11.05-.09s7.22,0,10.83,0q18.59,0,37.1.31c3.68.06,7.37.13,11,.22q24,.52,47.93,1.56l11,.51q24,1.19,47.91,2.88c3.7.26,7.38.52,11.06.81q24,1.81,47.92,4.17,5.52.54,11.06,1.12,24,2.47,47.91,5.49c3.69.46,7.37.94,11.06,1.41q24,3.17,47.9,6.85,5.54.82,11.06,1.74,24,3.81,47.91,8.19,5.53,1,11.06,2.05,24.08,4.5,47.92,9.58c3.7.78,7.39,1.56,11.06,2.37q24.06,5.24,47.9,11,5.55,1.32,11.06,2.71,24.06,5.93,47.91,12.43c3.69,1,7.39,2,11.06,3q24.09,6.69,47.91,13.91l11.06,3.37q24.09,7.46,47.93,15.44l11,3.73q24.12,8.22,47.93,17,5.53,2,11.05,4.1,24.11,9,47.93,18.61,5.54,2.22,11,4.48,24.13,9.84,47.93,20.28,5.57,2.42,11.06,4.88,24.12,10.69,47.9,22,5.55,2.61,11.06,5.29,24.14,11.61,47.92,23.82c3.68,1.89,7.39,3.79,11.06,5.7q24.15,12.57,47.91,25.71,4.49,2.48,8.93,5,25.24,14.13,50,28.9,5.55,3.3,11.06,6.64,24.18,14.59,47.91,29.82c3.69,2.36,7.38,4.76,11.07,7.15q24.2,15.72,47.91,32.08,5.55,3.81,11.06,7.68,24.19,16.91,47.9,34.49,5.55,4.08,11.06,8.25,24.24,18.21,47.91,37.08c3.7,3,7.39,5.9,11.06,8.89q24.27,19.62,47.93,39.93,5.54,4.74,11.05,9.55,24.29,21.13,47.91,43,5.55,5.13,11.05,10.31,24.36,22.84,47.92,46.46,5.57,5.55,11,11.16,24.4,24.77,47.93,50.33,5.55,6,11.06,12.13,24.43,26.94,47.9,54.75c3.72,4.38,7.4,8.8,11.07,13.21q24.51,29.51,47.9,59.9c3.71,4.81,7.41,9.66,11.06,14.5q24.61,32.54,47.92,66.06,5.58,8,11.06,16.08,24.75,36.27,47.91,73.63,5.58,9,11.06,18,24.92,41.09,47.9,83.37,5.59,10.27,11.06,20.61,25.23,47.65,47.92,96.75,5.61,12.12,11.06,24.32,25.72,57.62,47.91,117,5.64,15.14,11.06,30.39,27,75.9,47.9,154.42,5.77,21.61,11.06,43.4a2004.33,2004.33,0,0,1,47.93,287.28q6.33,67.65,8.09,136.53Q4576.83,2421,4576.82,2447.06Z" transform="translate(-35.12 -75.19)"/><path class="cls-3" d="M4659.67,2393.1V2501h-3.07q-1.83,71.52-8.4,141.8a2081.36,2081.36,0,0,1-49.79,298.4q-5.47,22.64-11.49,45.08-21.69,81.51-49.75,160.39-5.62,15.86-11.49,31.56-23,61.68-49.77,121.53-5.64,12.69-11.49,25.27-23.54,51-49.76,100.49-5.68,10.74-11.49,21.4-23.86,43.92-49.76,86.6-5.68,9.4-11.49,18.73-24.06,38.78-49.76,76.47-5.7,8.39-11.49,16.7-24.21,34.82-49.77,68.62-5.7,7.54-11.49,15.06-24.3,31.56-49.75,62.22c-3.81,4.58-7.65,9.17-11.51,13.72q-24.34,28.88-49.75,56.87-5.71,6.33-11.49,12.6-24.45,26.53-49.78,52.27-5.7,5.83-11.47,11.59-24.49,24.53-49.79,48.27-5.7,5.39-11.47,10.71-24.53,22.71-49.77,44.68-5.72,5-11.47,9.92-24.57,21.12-49.78,41.48-5.73,4.65-11.49,9.22-24.6,19.62-49.77,38.53c-3.81,2.87-7.65,5.74-11.49,8.56Q3766,4168,3740.88,4185.6q-5.73,4-11.49,8-24.64,17-49.77,33.32c-3.83,2.48-7.66,5-11.49,7.42q-24.66,15.81-49.77,31-5.71,3.46-11.49,6.9-24.66,14.7-49.75,28.77c-3.81,2.16-7.64,4.29-11.49,6.42q-24.68,13.65-49.76,26.7c-3.82,2-7.66,4-11.49,5.93q-24.72,12.67-49.77,24.74c-3.81,1.85-7.64,3.69-11.49,5.49q-24.69,11.74-49.75,22.84c-3.82,1.72-7.65,3.4-11.49,5.07q-24.71,10.85-49.79,21.06c-3.81,1.58-7.64,3.12-11.47,4.66q-24.73,10-49.78,19.33c-3.81,1.43-7.65,2.85-11.47,4.26q-24.76,9.12-49.79,17.65-5.72,1.95-11.45,3.88-25.5,8.53-51.29,16.48c-3.32,1-6.66,2.05-10,3.06q-24.75,7.5-49.77,14.44c-3.81,1.07-7.65,2.12-11.48,3.15q-24.76,6.77-49.77,12.92-5.73,1.44-11.49,2.81-24.77,6-49.75,11.42-5.73,1.24-11.49,2.45-24.78,5.27-49.77,10-5.74,1.08-11.49,2.13-24.78,4.53-49.77,8.5-5.75,1-11.49,1.81-24.78,3.84-49.75,7.11-5.74.75-11.49,1.47-24.8,3.12-49.76,5.71-5.74.6-11.49,1.16-24.81,2.44-49.77,4.34c-3.83.29-7.64.57-11.49.83q-24.81,1.78-49.77,3c-3.83.19-7.66.36-11.47.53q-24.83,1.08-49.78,1.62-5.73.13-11.48.23-19.22.33-38.53.33c-3.75,0-7.5,0-11.25,0s-7.64,0-11.47-.09q-24.95-.22-49.77-1c-3.83-.11-7.66-.25-11.49-.39q-25-.9-49.77-2.37-5.75-.33-11.49-.71-25-1.57-49.76-3.72-5.75-.49-11.49-1-24.95-2.28-49.76-5.1c-3.83-.43-7.65-.88-11.49-1.32q-25-3-49.76-6.49-5.75-.81-11.49-1.66-25-3.66-49.77-7.87-5.74-1-11.49-2-25-4.35-49.75-9.29-5.74-1.12-11.49-2.31-25-5.11-49.77-10.77-5.74-1.31-11.49-2.66-25-5.83-49.77-12.24l-11.48-3q-25-6.6-49.79-13.77c-3.83-1.1-7.64-2.22-11.46-3.35q-25-7.36-49.78-15.33c-3.83-1.22-7.66-2.45-11.47-3.72q-25-8.15-49.79-16.91c-3.84-1.34-7.67-2.72-11.48-4.09q-25-9-49.77-18.57c-3.85-1.48-7.68-3-11.49-4.47q-25-9.84-49.75-20.28-5.74-2.42-11.49-4.88-25-10.73-49.77-22-5.74-2.62-11.49-5.31-25.07-11.62-49.77-23.88-5.76-2.85-11.49-5.74-25.07-12.59-49.75-25.82-5.76-3.06-11.49-6.19-25.08-13.59-49.76-27.84-5.77-3.31-11.49-6.68-25.11-14.66-49.77-30c-3.85-2.36-7.68-4.77-11.49-7.18q-25.11-15.8-49.75-32.24-5.74-3.84-11.49-7.73-25.14-17-49.78-34.7-5.74-4.12-11.48-8.29-25.18-18.31-49.78-37.32-5.74-4.43-11.47-8.9-25.21-19.71-49.79-40.15-5.74-4.74-11.45-9.58-25.23-21.24-49.79-43.22-5.76-5.13-11.49-10.35-25.25-22.92-49.76-46.62c-3.85-3.72-7.66-7.45-11.49-11.18q-25.31-24.82-49.77-50.46-5.79-6-11.49-12.11-25.37-27-49.75-54.75-5.79-6.57-11.49-13.19-25.44-29.43-49.77-59.73-5.79-7.2-11.49-14.45-25.51-32.32-49.76-65.63c-3.87-5.27-7.69-10.6-11.49-15.92Q641.1,3632,617,3595.09q-5.81-8.85-11.49-17.73-25.79-40.31-49.77-81.77-5.82-10-11.49-20.13-26-46.15-49.77-93.68-5.82-11.66-11.49-23.38-26.46-54.62-49.77-110.88-5.83-14.08-11.47-28.25-27.27-68.66-49.78-139.54-5.91-18.61-11.47-37.36a2075.68,2075.68,0,0,1-49.79-205.58q-6.27-33.18-11.47-66.69A2099.33,2099.33,0,0,1,275,2501q-.69-26.9-.68-54t.68-54A2099.17,2099.17,0,0,1,299.22,2124q5.19-33.53,11.47-66.69a2074.33,2074.33,0,0,1,49.79-205.58Q366,1833,372,1814.39q22.46-70.86,49.78-139.54,5.63-14.16,11.47-28.24,23.31-56.27,49.77-110.88c3.77-7.83,7.62-15.62,11.49-23.38q23.71-47.5,49.77-93.69,5.67-10.1,11.49-20.12,24-41.47,49.77-81.77,5.68-8.89,11.49-17.74,24.1-36.87,49.75-72.72,5.7-8,11.49-15.93,24.22-33.29,49.76-65.63,5.7-7.24,11.49-14.43,24.33-30.33,49.77-59.74,5.7-6.63,11.49-13.2,24.38-27.78,49.75-54.74,5.7-6.09,11.49-12.12,24.45-25.62,49.77-50.45c3.83-3.74,7.64-7.47,11.49-11.19Q947.72,905.2,973,882.27q5.73-5.21,11.49-10.36,24.54-22,49.79-43.21,5.71-4.85,11.45-9.59,54.06-44.91,111-86.37,5.73-4.17,11.48-8.29,24.63-17.69,49.78-34.69,5.74-3.88,11.49-7.73,24.63-16.47,49.75-32.25c3.81-2.4,7.64-4.81,11.49-7.17q24.66-15.33,49.77-30,5.71-3.37,11.49-6.68,24.66-14.24,49.76-27.85c3.82-2.08,7.65-4.15,11.49-6.18Q1438,558.68,1463,546.08q5.73-2.88,11.49-5.74,24.72-12.24,49.77-23.87c3.83-1.79,7.66-3.57,11.49-5.31q24.71-11.32,49.77-22,5.74-2.47,11.49-4.88,24.74-10.44,49.75-20.28,5.71-2.25,11.49-4.48Q1683,449.9,1708,440.92q5.71-2.07,11.48-4.09,24.77-8.76,49.79-16.92,5.71-1.89,11.47-3.72,24.76-8,49.78-15.32c3.82-1.13,7.63-2.26,11.46-3.35q24.78-7.15,49.79-13.77c3.83-1,7.65-2,11.48-3q24.77-6.42,49.77-12.24,5.75-1.36,11.49-2.66,24.78-5.67,49.77-10.77,5.75-1.18,11.49-2.32,24.78-4.93,49.75-9.29,5.74-1,11.49-2,24.78-4.22,49.77-7.87,5.74-.86,11.49-1.67,24.79-3.51,49.76-6.48l11.49-1.33q24.79-2.82,49.76-5.09c3.83-.36,7.66-.69,11.49-1q24.79-2.13,49.76-3.72,5.74-.39,11.49-.71,24.81-1.46,49.77-2.37c3.83-.14,7.66-.28,11.49-.39q24.83-.81,49.77-1c3.83-.05,7.64-.08,11.47-.1l11.25,0q19.3,0,38.53.33,5.74.09,11.48.23,25,.52,49.78,1.62l11.47.52q24.95,1.23,49.77,3c3.85.26,7.66.54,11.49.83q25,1.91,49.77,4.34,5.74.56,11.49,1.16,25,2.57,49.76,5.71l11.49,1.46q25,3.28,49.75,7.12,5.74.86,11.49,1.8,25,4,49.77,8.51,5.74,1,11.49,2.13,25,4.68,49.77,9.95c3.84.81,7.67,1.62,11.49,2.46q25,5.43,49.75,11.42c3.85.91,7.67,1.85,11.49,2.81q25,6.15,49.77,12.91c3.83,1,7.67,2.09,11.48,3.15q25,6.94,49.77,14.45l11.49,3.5q25,7.74,49.79,16c3.83,1.28,7.64,2.58,11.45,3.87q25.05,8.55,49.79,17.66,5.74,2.1,11.47,4.26,25,9.34,49.78,19.32c3.83,1.55,7.66,3.09,11.48,4.66q25.07,10.22,49.78,21.07,5.76,2.5,11.49,5.06,25,11.12,49.75,22.85c3.85,1.8,7.67,3.64,11.49,5.49q25.07,12.06,49.77,24.74c3.83,2,7.67,3.94,11.49,5.93q25.08,13.05,49.76,26.7c3.11,1.71,6.19,3.44,9.28,5.17q26.22,14.67,52,30,5.76,3.42,11.48,6.9,25.13,15.17,49.77,31,5.74,3.69,11.49,7.43,25.14,16.32,49.77,33.32,5.76,4,11.49,8,25.14,17.55,49.75,35.82c3.85,2.83,7.67,5.7,11.49,8.57q25.18,18.92,49.77,38.52,5.76,4.59,11.49,9.23,25.2,20.37,49.78,41.47,5.74,4.93,11.47,9.93,25.23,21.95,49.77,44.68,5.78,5.32,11.47,10.71,25.3,23.73,49.79,48.26,5.76,5.76,11.47,11.59,25.35,25.73,49.78,52.28,5.78,6.27,11.49,12.59,25.38,28,49.75,56.88,5.81,6.82,11.51,13.72,25.44,30.65,49.75,62.21,5.78,7.5,11.49,15.07,25.56,33.8,49.77,68.62,5.79,8.31,11.49,16.69,25.69,37.68,49.76,76.48,5.81,9.33,11.49,18.72,25.88,42.67,49.76,86.6,5.81,10.68,11.49,21.41,26.2,49.5,49.76,100.49,5.85,12.6,11.49,25.27,26.73,59.84,49.77,121.52,5.86,15.72,11.49,31.56,28,78.84,49.75,160.4,6,22.46,11.49,45.08a2081.36,2081.36,0,0,1,49.79,298.4q6.57,70.26,8.4,141.81h3.07Z" transform="translate(-35.12 -75.19)"/><g class="cls-4"><path class="cls-5" d="M310.69,2057.34v779.45q-6.27-33.18-11.47-66.7V2124Q304.41,2090.51,310.69,2057.34Z" transform="translate(-35.12 -75.19)"/><path class="cls-5" d="M372,1814.39V3079.73q-5.93-18.61-11.48-37.36V1851.75Q366,1833,372,1814.39Z" transform="translate(-35.12 -75.19)"/><path class="cls-5" d="M433.2,1646.6V3247.52q-5.83-14.08-11.47-28.25V1674.85Q427.36,1660.68,433.2,1646.6Z" transform="translate(-35.12 -75.19)"/><path class="cls-5" d="M494.46,1512.34V3381.78q-5.82-11.66-11.49-23.38V1535.73Q488.63,1524,494.46,1512.34Z" transform="translate(-35.12 -75.19)"/><path class="cls-5" d="M555.72,1398.53V3495.59q-5.82-10-11.49-20.13V1418.66Q549.9,1408.57,555.72,1398.53Z" transform="translate(-35.12 -75.19)"/><path class="cls-5" d="M617,1299V3595.09q-5.79-8.85-11.49-17.73V1316.76Q611.18,1307.88,617,1299Z" transform="translate(-35.12 -75.19)"/><path class="cls-5" d="M678.21,1210.38V3683.74c-3.86-5.27-7.69-10.6-11.49-15.92V1226.31Q672.42,1218.32,678.21,1210.38Z" transform="translate(-35.12 -75.19)"/><path class="cls-5" d="M739.47,1130.32V3763.81q-5.79-7.2-11.49-14.44V1144.75Q733.68,1137.51,739.47,1130.32Z" transform="translate(-35.12 -75.19)"/><path class="cls-5" d="M800.73,1057.38V3836.74q-5.79-6.57-11.49-13.19v-2753Q794.94,1064,800.73,1057.38Z" transform="translate(-35.12 -75.19)"/><path class="cls-5" d="M862,990.52V3903.6q-5.79-6-11.49-12.11V1002.64Q856.18,996.55,862,990.52Z" transform="translate(-35.12 -75.19)"/><path class="cls-5" d="M923.22,928.88V3965.25c-3.84-3.73-7.65-7.46-11.48-11.19v-3014C915.57,936.33,919.38,932.6,923.22,928.88Z" transform="translate(-35.12 -75.19)"/><path class="cls-5" d="M984.48,871.91v3150.3q-5.76-5.13-11.49-10.35V882.26Q978.72,877.06,984.48,871.91Z" transform="translate(-35.12 -75.19)"/><path class="cls-5" d="M1045.72,819.11V4075q-5.74-4.74-11.45-9.58V828.69Q1040,823.86,1045.72,819.11Z" transform="translate(-35.12 -75.19)"/><path class="cls-5" d="M1107,978.5V4124.06q-5.74-4.43-11.47-8.9V904.24Z" transform="translate(-35.12 -75.19)"/><path class="cls-5" d="M1168.24,724.45V4169.67q-5.74-4.12-11.48-8.29V732.74Q1162.49,728.57,1168.24,724.45Z" transform="translate(-35.12 -75.19)"/><path class="cls-5" d="M1229.51,682V4212.1q-5.74-3.86-11.49-7.74V689.76Q1223.76,685.86,1229.51,682Z" transform="translate(-35.12 -75.19)"/><path class="cls-5" d="M1290.75,642.61V4251.52c-3.84-2.36-7.67-4.77-11.49-7.18V649.78Q1285,646.17,1290.75,642.61Z" transform="translate(-35.12 -75.19)"/><path class="cls-5" d="M1352,605.93V4288.19q-5.77-3.31-11.49-6.69V612.62Q1346.24,609.23,1352,605.93Z" transform="translate(-35.12 -75.19)"/><path class="cls-5" d="M1413.26,571.9V4322.22q-5.76-3.06-11.48-6.19V578.09Q1407.5,575,1413.26,571.9Z" transform="translate(-35.12 -75.19)"/><path class="cls-5" d="M1474.5,540.34V4353.78q-5.76-2.85-11.48-5.74v-3802Q1468.74,543.18,1474.5,540.34Z" transform="translate(-35.12 -75.19)"/><path class="cls-5" d="M1535.76,511.15V4383q-5.74-2.62-11.49-5.31V516.46Q1530,513.77,1535.76,511.15Z" transform="translate(-35.12 -75.19)"/><path class="cls-5" d="M1597,484.24V4409.88q-5.74-2.4-11.49-4.87V489.11Q1591.28,486.64,1597,484.24Z" transform="translate(-35.12 -75.19)"/><path class="cls-5" d="M1658.26,459.48V4434.64q-5.77-2.22-11.49-4.48V464Q1652.49,461.71,1658.26,459.48Z" transform="translate(-35.12 -75.19)"/><path class="cls-5" d="M1719.52,436.82V4457.3c-3.85-1.34-7.68-2.72-11.49-4.09V440.91Q1713.75,438.86,1719.52,436.82Z" transform="translate(-35.12 -75.19)"/><path class="cls-5" d="M1780.77,416.19V4477.93c-3.83-1.22-7.66-2.45-11.47-3.72V419.91C1773.11,418.64,1776.94,417.41,1780.77,416.19Z" transform="translate(-35.12 -75.19)"/><path class="cls-5" d="M1842,397.51v4099.1q-5.74-1.65-11.45-3.35V400.86Q1836.28,399.17,1842,397.51Z" transform="translate(-35.12 -75.19)"/><path class="cls-5" d="M1903.29,380.75V4513.37q-5.74-1.48-11.49-3V383.75Z" transform="translate(-35.12 -75.19)"/><path class="cls-5" d="M1964.54,365.86v4162.4q-5.74-1.29-11.49-2.65V368.51Q1958.8,367.15,1964.54,365.86Z" transform="translate(-35.12 -75.19)"/><path class="cls-5" d="M2025.8,352.77V4541.35c-3.83-.75-7.66-1.53-11.49-2.31v-4184Z" transform="translate(-35.12 -75.19)"/><path class="cls-5" d="M2087,341.49V4552.63q-5.74-1-11.49-2V343.48Q2081.3,342.46,2087,341.49Z" transform="translate(-35.12 -75.19)"/><path class="cls-5" d="M2148.3,332V4562.17q-5.75-.81-11.49-1.66V333.62Q2142.55,332.75,2148.3,332Z" transform="translate(-35.12 -75.19)"/><path class="cls-5" d="M2209.55,324.14V4570q-5.75-.64-11.48-1.33V325.47Q2203.82,324.79,2209.55,324.14Z" transform="translate(-35.12 -75.19)"/><path class="cls-5" d="M2270.8,318V4576.09q-5.75-.48-11.49-1v-4256Q2265.05,318.51,2270.8,318Z" transform="translate(-35.12 -75.19)"/><path class="cls-5" d="M2332.05,313.6V4580.52q-5.75-.32-11.49-.71V314.31Q2326.3,313.92,2332.05,313.6Z" transform="translate(-35.12 -75.19)"/><path class="cls-5" d="M2393.31,310.83V4583.29c-3.83-.11-7.66-.25-11.49-.39V311.22C2385.65,311.08,2389.48,310.94,2393.31,310.83Z" transform="translate(-35.12 -75.19)"/><path class="cls-5" d="M2454.55,309.71v4274.7c-3.83,0-7.64,0-11.47-.09V309.8C2446.91,309.75,2450.72,309.72,2454.55,309.71Z" transform="translate(-35.12 -75.19)"/><path class="cls-5" d="M2515.81,310.23V4583.89q-5.73.13-11.48.23V310Q2510.07,310.09,2515.81,310.23Z" transform="translate(-35.12 -75.19)"/><path class="cls-5" d="M2577.06,312.38V4581.74q-5.74.29-11.47.53V311.85Q2571.31,312.1,2577.06,312.38Z" transform="translate(-35.12 -75.19)"/><path class="cls-5" d="M2638.32,316.21v4261.7c-3.83.3-7.64.58-11.49.84V315.37C2630.68,315.63,2634.49,315.91,2638.32,316.21Z" transform="translate(-35.12 -75.19)"/><path class="cls-5" d="M2699.58,321.7V4572.42q-5.74.6-11.49,1.16v-4253Q2693.84,321.1,2699.58,321.7Z" transform="translate(-35.12 -75.19)"/><path class="cls-5" d="M2760.83,328.88V4565.24q-5.73.75-11.48,1.47V327.41Q2755.1,328.13,2760.83,328.88Z" transform="translate(-35.12 -75.19)"/><path class="cls-5" d="M2822.08,337.8V4556.32q-5.74,1-11.49,1.81V336Q2816.34,336.85,2822.08,337.8Z" transform="translate(-35.12 -75.19)"/><path class="cls-5" d="M2883.33,348.43V4545.69q-5.74,1.08-11.49,2.13V346.3Q2877.59,347.35,2883.33,348.43Z" transform="translate(-35.12 -75.19)"/><path class="cls-5" d="M2944.59,360.84V4533.28q-5.73,1.24-11.49,2.45V358.39Q2938.86,359.59,2944.59,360.84Z" transform="translate(-35.12 -75.19)"/><path class="cls-5" d="M3005.83,375.07v4144q-5.72,1.44-11.49,2.81V372.26Q3000.12,373.63,3005.83,375.07Z" transform="translate(-35.12 -75.19)"/><path class="cls-5" d="M3067.09,391.14V4503c-3.82,1.07-7.66,2.12-11.49,3.15V388C3059.43,389,3063.27,390.07,3067.09,391.14Z" transform="translate(-35.12 -75.19)"/><path class="cls-5" d="M3128.34,409.09V4475.73l-1.5,9.75c-3.32,1-6.66,2.05-10,3.06v-4083Z" transform="translate(-35.12 -75.19)"/><path class="cls-5" d="M3189.58,429V4465.12q-5.72,1.95-11.45,3.88V425.12Q3183.88,427,3189.58,429Z" transform="translate(-35.12 -75.19)"/><path class="cls-5" d="M3250.84,450.91v3992.3q-5.72,2.15-11.47,4.26V446.65Q3245.12,448.77,3250.84,450.91Z" transform="translate(-35.12 -75.19)"/><path class="cls-5" d="M3312.1,474.9V4419.22c-3.82,1.58-7.65,3.12-11.47,4.66V470.24C3304.45,471.78,3308.28,473.32,3312.1,474.9Z" transform="translate(-35.12 -75.19)"/><path class="cls-5" d="M3373.37,501V4393.09c-3.81,1.72-7.64,3.4-11.49,5.07V496Q3367.66,498.46,3373.37,501Z" transform="translate(-35.12 -75.19)"/><path class="cls-5" d="M3434.61,529.37V4364.75q-5.71,2.79-11.49,5.5V523.87Q3428.89,526.58,3434.61,529.37Z" transform="translate(-35.12 -75.19)"/><path class="cls-5" d="M3495.87,560V4334.09c-3.81,2-7.66,4-11.49,5.92V554.11C3488.21,556.07,3492.05,558,3495.87,560Z" transform="translate(-35.12 -75.19)"/><path class="cls-5" d="M3557.13,606.27V4301c-3.82,2.16-7.65,4.29-11.49,6.42V586.73l9.27,5.17Z" transform="translate(-35.12 -75.19)"/><path class="cls-5" d="M3618.37,628.82V4265.3q-5.73,3.46-11.49,6.9V621.92Q3612.64,625.36,3618.37,628.82Z" transform="translate(-35.12 -75.19)"/><path class="cls-5" d="M3679.62,667.22V4226.9c-3.83,2.48-7.66,5-11.48,7.42V659.8C3672,662.25,3675.79,664.74,3679.62,667.22Z" transform="translate(-35.12 -75.19)"/><path class="cls-5" d="M3740.88,708.52V4185.6q-5.72,4-11.49,8v-3493Q3735.17,704.5,3740.88,708.52Z" transform="translate(-35.12 -75.19)"/><path class="cls-5" d="M3802.12,752.91v3388.3c-3.81,2.87-7.64,5.74-11.49,8.56V744.35C3794.48,747.17,3798.31,750,3802.12,752.91Z" transform="translate(-35.12 -75.19)"/><path class="cls-5" d="M3863.38,800.66v3292.8q-5.73,4.65-11.49,9.22V791.44Q3857.65,796,3863.38,800.66Z" transform="translate(-35.12 -75.19)"/><path class="cls-5" d="M3924.64,852.06v3190q-5.73,5-11.48,9.92V842.14Q3918.91,847.06,3924.64,852.06Z" transform="translate(-35.12 -75.19)"/><path class="cls-5" d="M3985.88,907.45V3986.67q-5.7,5.39-11.48,10.71V896.74Q3980.18,902.07,3985.88,907.45Z" transform="translate(-35.12 -75.19)"/><path class="cls-5" d="M4047.13,967.31v2959.5q-5.7,5.83-11.47,11.6V955.72Q4041.42,961.48,4047.13,967.31Z" transform="translate(-35.12 -75.19)"/><path class="cls-5" d="M4108.41,1032.18V3861.94q-5.73,6.33-11.49,12.6v-2855Q4102.68,1025.85,4108.41,1032.18Z" transform="translate(-35.12 -75.19)"/><path class="cls-5" d="M4169.66,1102.77V3791.35c-3.81,4.58-7.64,9.17-11.5,13.72v-2716C4162,1093.6,4165.85,1098.19,4169.66,1102.77Z" transform="translate(-35.12 -75.19)"/><path class="cls-5" d="M4230.9,1180.05v2534c-3.79,5-7.64,10.06-11.49,15.06V1165Q4225.19,1172.49,4230.9,1180.05Z" transform="translate(-35.12 -75.19)"/><path class="cls-5" d="M4292.16,1265.37V3628.75q-5.7,8.39-11.49,16.7V1248.67Q4286.46,1257,4292.16,1265.37Z" transform="translate(-35.12 -75.19)"/><path class="cls-5" d="M4353.42,1360.57v2173q-5.7,9.39-11.49,18.72V1341.84Q4347.72,1351.17,4353.42,1360.57Z" transform="translate(-35.12 -75.19)"/><path class="cls-5" d="M4414.66,1468.57v1957q-5.67,10.74-11.49,21.41V1447.17Q4409,1457.84,4414.66,1468.57Z" transform="translate(-35.12 -75.19)"/><path class="cls-5" d="M4475.91,1594.33V3299.79q-5.64,12.69-11.49,25.27v-1756Q4470.27,1581.66,4475.91,1594.33Z" transform="translate(-35.12 -75.19)"/><path class="cls-5" d="M4537.17,1747.42V3146.7q-5.62,15.86-11.49,31.56V1715.86Q4531.55,1731.58,4537.17,1747.42Z" transform="translate(-35.12 -75.19)"/><path class="cls-5" d="M4586.92,1907.81q6,22.45,11.49,45.08v988.34q-5.47,22.64-11.49,45.08Z" transform="translate(-35.12 -75.19)"/><path class="cls-5" d="M4659.67,2393.1V2501h-3.07q-1.83,71.52-8.4,141.8V2251.29q6.57,70.27,8.4,141.81Z" transform="translate(-35.12 -75.19)"/></g><path class="cls-6" d="M4659.67,2393.1V2501H275q-.69-26.9-.68-54t.68-54Z" transform="translate(-35.12 -75.19)"/><ellipse class="cls-7" cx="1621.83" cy="1588.15" rx="461.84" ry="450.45"/><ellipse class="cls-8" cx="1621.83" cy="1588.15" rx="362.93" ry="353.97"/><ellipse class="cls-9" cx="1438.57" cy="1456.61" rx="21.1" ry="20.58"/><ellipse class="cls-10" cx="1727.33" cy="1786.43" rx="21.1" ry="20.58"/><ellipse class="cls-10" cx="1769.53" cy="1435.86" rx="21.1" ry="20.58"/><ellipse class="cls-11" cx="1818.06" cy="1588.15" rx="21.1" ry="20.58"/><ellipse class="cls-10" cx="1515.03" cy="1765.85" rx="21.1" ry="20.58"/><ellipse class="cls-11" cx="1398.58" cy="1641.85" rx="21.1" ry="20.58"/><ellipse class="cls-11" cx="1590.37" cy="1374.12" rx="21.1" ry="20.58"/><path class="cls-12" d="M1667.82,1616.38h0c3.22-17.62.2-35.1-9.17-49.13l-7.33-11c-3.83,2.15-7.59,4.4-11.28,6.72-14.12,8.89-23.19,25.08-25.87,43.38h0c-2.65,18.33,1.26,36.93,10.74,51.1q3.72,5.57,7.43,11.12,5.13-4,10.23-8C1655.56,1650.22,1664.57,1634,1667.82,1616.38Z" transform="translate(-35.12 -75.19)"/><path class="cls-12" d="M1693.07,1645.22h0c15.44,3.17,28.82,14,36.34,29.19q3,6,5.92,11.91-5.24,4.13-10.32,8.48c-13,11.1-28.59,16.53-43.68,13.89h0c-15.07-2.61-28.1-12.94-35.74-28.29q-3-6-6-12c3.28-3.08,6.53-6.19,9.79-9.29C1661.79,1647.16,1677.61,1642,1693.07,1645.22Z" transform="translate(-35.12 -75.19)"/><path class="cls-12" d="M1611.27,1662.24h0c3-19.8-1.3-40.15-11.62-55.6l-8.11-12.13q-5.57,4.4-11.15,8.77c-14.2,11.18-24.44,28.42-28.58,46.82h0c-4.1,18.47-1.44,36.72,8.68,51.91l7.92,11.89c4.49-2,8.85-4.06,13.12-6.29C1597.87,1699.11,1608.2,1682,1611.27,1662.24Z" transform="translate(-35.12 -75.19)"/><path class="cls-12" d="M1632.89,1693.59h0c16.81,1.68,31.88,11.59,41.7,27.58l7.68,12.52c-3.26,3.64-6.53,7.26-9.86,10.82a52,52,0,0,1-48.55,16h0a66.14,66.14,0,0,1-43.82-30.25q-3.69-6.07-7.39-12.15c4-2.65,8-5.47,11.77-8.42C1599,1698.44,1616.05,1691.86,1632.89,1693.59Z" transform="translate(-35.12 -75.19)"/><path class="cls-12" d="M1734.4,1583.07h0c6.18-12.93,5.85-26.39-2.71-39.32l-6.69-10.1q-7.38.7-14.33,1.94c-17.8,3.06-29.68,14.48-34,29.71h0c-4.34,15.23-1.09,32.37,7.83,45.74l7,10.53c3.56-2.17,7.19-4.27,10.89-6.26C1716.48,1607.59,1728.18,1595.94,1734.4,1583.07Z" transform="translate(-35.12 -75.19)"/><path class="cls-12" d="M1750.39,1608.65h0c17.43,4.87,32.55,16,40.42,29.06L1797,1648q-6.3,2.25-12.2,5c-15.09,6.94-31.73,10.57-47.41,7.9h0a54.12,54.12,0,0,1-37.57-25.48l-6.62-10.84q4.71-4.23,9.64-8.2C1715.4,1606.24,1733,1603.77,1750.39,1608.65Z" transform="translate(-35.12 -75.19)"/><path class="cls-12" d="M1522.08,1740.23l-3.73-6c94.21-25.88,139.32-108.2,227.45-141.07l1.52,2.41C1660.1,1629.86,1616,1713.63,1522.08,1740.23Z" transform="translate(-35.12 -75.19)"/><path class="cls-13" d="M2578.43,3162.55c0,383-318.32,693.44-711,693.44s-711-310.46-711-693.44a685.43,685.43,0,0,1,3.61-70.4c36.19-349.89,339.05-623,707.35-623s671.17,273.12,707.35,623A685.42,685.42,0,0,1,2578.43,3162.55Z" transform="translate(-35.12 -75.19)"/><path class="cls-14" d="M2574.81,3092.15c-36.18,349.88-339.06,623-707.35,623s-671.16-273.12-707.35-623c36.19-349.89,339.05-623,707.35-623S2538.63,2742.26,2574.81,3092.15Z" transform="translate(-35.12 -75.19)"/><path class="cls-13" d="M3662.21,3137.05c0,383-318.31,693.44-711,693.44s-711-310.46-711-693.44a685.77,685.77,0,0,1,3.62-70.41c36.18-349.88,339-623,707.35-623s671.16,273.12,707.35,623A685.77,685.77,0,0,1,3662.21,3137.05Z" transform="translate(-35.12 -75.19)"/><path class="cls-14" d="M3658.59,3066.64c-36.18,349.89-339.06,623-707.34,623s-671.17-273.12-707.35-623c36.18-349.88,339-623,707.35-623S3622.41,2716.76,3658.59,3066.64Z" transform="translate(-35.12 -75.19)"/><g class="cls-15"><ellipse class="cls-13" cx="1500.3" cy="2630.08" rx="22.73" ry="22.17"/><ellipse class="cls-13" cx="1690.61" cy="2735.75" rx="22.73" ry="22.17"/><ellipse class="cls-13" cx="1880.82" cy="2841.67" rx="22.73" ry="22.17"/><ellipse class="cls-13" cx="1695.54" cy="2969.29" rx="22.73" ry="22.17"/><ellipse class="cls-13" cx="1353.24" cy="2924.95" rx="22.73" ry="22.17"/><ellipse class="cls-13" cx="1490.08" cy="3120.55" rx="22.73" ry="22.17"/><ellipse class="cls-13" cx="1661.12" cy="3180.79" rx="22.73" ry="22.17"/><ellipse class="cls-13" cx="1798.14" cy="3274.45" rx="22.73" ry="22.17"/><ellipse class="cls-13" cx="2094.78" cy="2780.08" rx="22.73" ry="22.17"/><ellipse class="cls-13" cx="1820.76" cy="2544.03" rx="22.73" ry="22.17"/><ellipse class="cls-13" cx="2049.76" cy="3202.68" rx="22.73" ry="22.17"/><ellipse class="cls-13" cx="1798.14" cy="3502.64" rx="22.73" ry="22.17"/><ellipse class="cls-13" cx="1523.15" cy="3406.15" rx="22.73" ry="22.17"/></g><g class="cls-15"><ellipse class="cls-13" cx="2635.47" cy="2598.25" rx="22.73" ry="22.17"/><ellipse class="cls-13" cx="2825.65" cy="2703.89" rx="22.73" ry="22.17"/><ellipse class="cls-13" cx="3015.87" cy="2809.56" rx="22.73" ry="22.17"/><ellipse class="cls-13" cx="2830.58" cy="2937.43" rx="22.73" ry="22.17"/><ellipse class="cls-13" cx="2488.41" cy="2893.12" rx="22.73" ry="22.17"/><ellipse class="cls-13" cx="2625.24" cy="3088.71" rx="22.73" ry="22.17"/><ellipse class="cls-13" cx="2796.2" cy="3148.67" rx="22.73" ry="22.17"/><ellipse class="cls-13" cx="2933.2" cy="3242.58" rx="22.73" ry="22.17"/><ellipse class="cls-13" cx="3229.81" cy="2748.23" rx="22.73" ry="22.17"/><ellipse class="cls-13" cx="2955.8" cy="2512.17" rx="22.73" ry="22.17"/><ellipse class="cls-13" cx="3184.8" cy="3170.84" rx="22.73" ry="22.17"/><ellipse class="cls-13" cx="2933.2" cy="3470.77" rx="22.73" ry="22.17"/><ellipse class="cls-13" cx="2658.06" cy="3374.57" rx="22.73" ry="22.17"/></g><ellipse class="cls-16" cx="3282.29" cy="2959.93" rx="16.33" ry="15.93"/><ellipse class="cls-16" cx="3402.43" cy="3126.79" rx="16.33" ry="15.93"/><ellipse class="cls-16" cx="3236.71" cy="3318.03" rx="16.33" ry="15.93"/><ellipse class="cls-17" cx="3153.72" cy="1421.12" rx="623.66" ry="608.27"/><ellipse class="cls-18" cx="3153.72" cy="1421.12" rx="490.09" ry="477.99"/><ellipse class="cls-19" cx="2816.8" cy="1382.38" rx="23.59" ry="23.01"/><ellipse class="cls-19" cx="2930.03" cy="1522.28" rx="23.59" ry="23.01"/><ellipse class="cls-19" cx="2996.09" cy="1382.38" rx="23.59" ry="23.01"/><ellipse class="cls-19" cx="2996.2" cy="1266.8" rx="23.59" ry="23.01"/><ellipse class="cls-19" cx="2900.78" cy="1186.34" rx="23.59" ry="23.01"/><path class="cls-20" d="M3372.63,1474.39a3,3,0,0,0-.67-4l-1.05-.89a1.19,1.19,0,0,1-.28-1.57,1.27,1.27,0,0,1,1.74-.46l4.76,2.58a7,7,0,0,0,9.34-2.33h0a6.66,6.66,0,0,0-2.39-9.12l-4.61-2.83a1.21,1.21,0,0,1-.43-1.71,1.25,1.25,0,0,1,1.55-.51l1.3.47a3.2,3.2,0,0,0,4-1.37,3.35,3.35,0,0,0,.28-.64h0a4.1,4.1,0,0,0-2.16-4.77l-16-7.84a3,3,0,0,1,2.41-5.45,4.21,4.21,0,0,0,4.64-2,4.4,4.4,0,0,0,.67-1.9,5.94,5.94,0,0,0-4.2-6.06l-58.12-17.14,32.58,2.84a6.09,6.09,0,0,0,6.22-4.09,4,4,0,0,0-2-4.75,4.82,4.82,0,0,0-1.69-.63l-1-.17a3.29,3.29,0,0,1-1-.32,3,3,0,0,1,1.51-5.53l18.35-1.48a4.32,4.32,0,0,0,3.29-2,3.57,3.57,0,0,0,.53-1.6,3,3,0,0,0-1.63-3,3.44,3.44,0,0,0-1.77-.53l-1.39,0a1.59,1.59,0,0,1-.51-.11,1.26,1.26,0,0,1,.56-2.26l5.36-.94a7.1,7.1,0,0,0,4.84-3.26,6.43,6.43,0,0,0,.87-4.33,6.61,6.61,0,0,0-3.37-4.72,7.27,7.27,0,0,0-4.65-1l-5.41.66a1.23,1.23,0,0,1-.7-.09,1.25,1.25,0,0,1,.36-2.21l1.32-.44a3.27,3.27,0,0,0,1.79-1.39,3,3,0,0,0,.18-2.76,4,4,0,0,0-1.78-1.9,4.33,4.33,0,0,0-3.23-.59L3344,1364a2.92,2.92,0,0,1-1.87-5.5,4.56,4.56,0,0,0,1.82-1.64,4,4,0,0,0-.18-4.36,5.71,5.71,0,0,0-1.93-1.72,6.33,6.33,0,0,0-5.5-.5l-33.82,13.69a96.44,96.44,0,0,1-71.82-4.68l-8.14-4.71,37.75-16.93,13.86-6.22,17.38-7.8a96.51,96.51,0,0,1,71.93,2.59l32.18,17a6.26,6.26,0,0,0,5.52,0,5.42,5.42,0,0,0,2.1-1.51,4,4,0,0,0,.64-4.31,4.4,4.4,0,0,0-1.63-1.82,2.92,2.92,0,0,1,2.45-5.28l16.57,5.46a4.35,4.35,0,0,0,3.27-.26,4,4,0,0,0,2-1.71,3,3,0,0,0,.12-2.76,3.27,3.27,0,0,0-1.64-1.57l-1.26-.56a1.26,1.26,0,0,1-.13-2.24,1.3,1.3,0,0,1,.71,0l5.31,1.2a7.24,7.24,0,0,0,4.73-.51,6.64,6.64,0,0,0,3.85-4.35,6.36,6.36,0,0,0-.41-4.39,7,7,0,0,0-4.46-3.73l-5.24-1.49a1.26,1.26,0,0,1-.31-2.3,1.44,1.44,0,0,1,.52,0l1.38.11a3.52,3.52,0,0,0,1.82-.35,3,3,0,0,0,1.94-2.81,3.73,3.73,0,0,0-.36-1.64,4.28,4.28,0,0,0-3.06-2.36l-18.09-3.33a3,3,0,0,1-.92-5.65,3.18,3.18,0,0,1,1-.22l1-.07a4.8,4.8,0,0,0,1.75-.46,4,4,0,0,0,2.45-4.52,6,6,0,0,0-5.75-4.7l-32.7-.47,59.62-11.18a6,6,0,0,0,4.82-5.6,4.35,4.35,0,0,0-.46-2,4.2,4.2,0,0,0-4.41-2.41h0a3,3,0,0,1-1.82-5.66l16.78-6.18a4.12,4.12,0,0,0,2.65-4.53,3.63,3.63,0,0,0-.21-.66,3.18,3.18,0,0,0-3.8-1.76l-1.34.34a1.26,1.26,0,0,1-1.48-.67,1.2,1.2,0,0,1,.6-1.66l4.89-2.35a6.68,6.68,0,0,0,3.34-8.82v0h0a7,7,0,0,0-9.05-3.26l-5,2.09a1.27,1.27,0,0,1-1.68-.63,1.19,1.19,0,0,1,.45-1.54l1.13-.77a3,3,0,0,0,1.1-4,3.11,3.11,0,0,0-.38-.59,4.33,4.33,0,0,0-5.25-1l-15.73,8.4c-3,1.18-5.75-2.69-3.22-5h0a4,4,0,0,0,1-4.83,4.57,4.57,0,0,0-1.22-1.62,6.21,6.21,0,0,0-7.5-.07l-47.5,36.88L3386,1231a5.81,5.81,0,0,0,.09-7.31,4.21,4.21,0,0,0-5.12-1.13,4.6,4.6,0,0,0-1.49,1l-.68.67a3.58,3.58,0,0,1-.84.61c-2.47,1-5.38-1.7-3.8-4.36l9.18-15.56a4.11,4.11,0,0,0,.15-3.81,3.85,3.85,0,0,0-1-1.33,3.21,3.21,0,0,0-3.46-.39,3.35,3.35,0,0,0-1.44,1.12l-.82,1.09a1.64,1.64,0,0,1-.39.36,1.29,1.29,0,0,1-1.58-1.74l2.25-4.84a6.72,6.72,0,0,0,0-5.73,6.58,6.58,0,0,0-3.15-3.16,6.92,6.92,0,0,0-5.9,0,7.06,7.06,0,0,0-3.47,3.17l-2.51,4.71a1.3,1.3,0,0,1-.49.52,1.28,1.28,0,0,1-1.65-1.55l.37-1.3a3.07,3.07,0,0,0-2.37-3.95,4.1,4.1,0,0,0-2.62.35,4.2,4.2,0,0,0-2.33,2.26l-6.53,15.82a3,3,0,0,1-1.41,1.57,3.25,3.25,0,0,1-4-1.51,2.89,2.89,0,0,1-.24-1.68,4.33,4.33,0,0,0-.36-2.4,4.14,4.14,0,0,0-3.77-2.33,5.66,5.66,0,0,0-2.55.57,6,6,0,0,0-3.55,4.13l-7.68,34.92a92.41,92.41,0,0,1-44.78,55l-17.38,7.8-13.86,6.22-35.94,16.12,1-5.73a92.28,92.28,0,0,1,43.08-56.24l32.66-16.13a6,6,0,0,0,3.19-4.4,5.24,5.24,0,0,0-.08-2.55,4.13,4.13,0,0,0-3.27-3,4.65,4.65,0,0,0-2.47.28,3.19,3.19,0,0,1-1.72.2,3.15,3.15,0,0,1-2.54-3.44,3,3,0,0,1,1.2-1.72l14-10.19a4.16,4.16,0,0,0,1.64-2.77,3.86,3.86,0,0,0-.32-2.57A3.14,3.14,0,0,0,3295,1215a3.37,3.37,0,0,0-2.26.42l-1.19.69a1.3,1.3,0,0,1-2-1.17,1.27,1.27,0,0,1,.39-.59l4-3.57a6.85,6.85,0,0,0,2.26-4.08,6.5,6.5,0,0,0-1.48-5.57,6.75,6.75,0,0,0-3.94-2.17,7.2,7.2,0,0,0-5.68,1.46l-4.23,3.36a1.3,1.3,0,0,1-2.12-1,1.26,1.26,0,0,1,.26-.46l.87-1a3.31,3.31,0,0,0,.74-1.66,3,3,0,0,0-1.27-3.15,3.93,3.93,0,0,0-1.58-.65,4.4,4.4,0,0,0-3.74,1.12L3261,1209.55a3.12,3.12,0,0,1-5.29-2.48,3.41,3.41,0,0,1,.39-.94l.49-.81a4.46,4.46,0,0,0,.61-1.67,4,4,0,0,0-2.42-4.54,6.17,6.17,0,0,0-7.23,2l-19,26,24.47-54.19a5.85,5.85,0,0,0-2-7.06,4.51,4.51,0,0,0-1.92-.74,4.21,4.21,0,0,0-4.54,2.17c-1.67,3-6.2,1.4-5.81-1.76l4.33-17a4,4,0,0,0-3-4.91,3.18,3.18,0,0,0-3.65,2l-.47,1.27a1.26,1.26,0,0,1-1.41.81,1.24,1.24,0,0,1-1.06-1.43l.8-5.26a6.77,6.77,0,0,0-5.54-7.7h0a6.9,6.9,0,0,0-7.89,5.4l-1.09,5.21a1.26,1.26,0,0,1-1.49,1,1.22,1.22,0,0,1-1-1.23v-1.35a3.09,3.09,0,0,0-2.71-3.13,2.8,2.8,0,0,0-.71,0,4.19,4.19,0,0,0-3.81,3.65l-1.86,17.4a3.12,3.12,0,0,1-6.08-.28,4.11,4.11,0,0,0-3.51-3.54,4.65,4.65,0,0,0-2.06.06,5.93,5.93,0,0,0-4.32,6l4.09,59.07-8.79-30.72a6.08,6.08,0,0,0-6.12-4.23,4.1,4.1,0,0,0-3.86,3.47,4.34,4.34,0,0,0,0,1.76l.18.93a2.94,2.94,0,0,1,0,1,3.14,3.14,0,0,1-5.83.57l-7.91-16.22a4.26,4.26,0,0,0-3.12-2.28,3.85,3.85,0,0,0-1.72.08,3.06,3.06,0,0,0-2.29,2.55,3.16,3.16,0,0,0,.12,1.79l.46,1.28a1.35,1.35,0,0,1,.08.51,1.31,1.31,0,0,1-2.36.29l-2.81-4.56a7.06,7.06,0,0,0-4.83-3.26,6.84,6.84,0,0,0-4.46.73,6.57,6.57,0,0,0-3.33,4.74,6.72,6.72,0,0,0,.69,4.59l2.55,4.7a1.24,1.24,0,0,1,.16.68,1.32,1.32,0,0,1-2.25.45l-.88-1a3.32,3.32,0,0,0-2-1.14,3.14,3.14,0,0,0-2.7.81,3.83,3.83,0,0,0-1.2,2.3,4.07,4.07,0,0,0,.58,3.15l9.63,14.23a2.94,2.94,0,0,1,.53,2,3.22,3.22,0,0,1-3.58,2.39,3.16,3.16,0,0,1-1.56-.76,4.52,4.52,0,0,0-2.22-1.08,4.2,4.2,0,0,0-4.11,1.7,5.38,5.38,0,0,0-1,2.37,5.9,5.9,0,0,0,1.47,5.2l25.08,26a90.42,90.42,0,0,1,20.88,67.18L3174.9,1341,3117.14,1367l13.59,28.82,55.95-25.11,27.48,15.88a91.76,91.76,0,0,1,38.72,59.18l3.94,35.5a6,6,0,0,0,3.09,4.47,5.61,5.61,0,0,0,2.47.82,4.17,4.17,0,0,0,4-1.94,4.22,4.22,0,0,0,.61-2.34,3,3,0,0,1,.42-1.65,3.26,3.26,0,0,1,4.19-1.09,3,3,0,0,1,1.23,1.7l4.82,16.4a4.2,4.2,0,0,0,2.08,2.48,4.09,4.09,0,0,0,2.57.61,3.09,3.09,0,0,0,2.78-3.68l-.24-1.34a1.29,1.29,0,0,1,1.81-1.37,1.24,1.24,0,0,1,.43.56l2,4.94a7.35,7.35,0,0,0,9,4.12,6.68,6.68,0,0,0,3.47-2.82,6.76,6.76,0,0,0,.61-5.71l-1.73-5a1.29,1.29,0,0,1,1.76-1.56,1.22,1.22,0,0,1,.35.39l.69,1.17a3.31,3.31,0,0,0,1.33,1.25,3.19,3.19,0,0,0,3.47,0,3.75,3.75,0,0,0,1.18-1.23,4.09,4.09,0,0,0,.25-3.79l-7.48-16.41c-1.28-2.8,1.89-5.16,4.24-4a3.34,3.34,0,0,1,.78.69l.6.74a4.62,4.62,0,0,0,1.38,1.14,4.2,4.2,0,0,0,5.21-.61,5.8,5.8,0,0,0,.69-7.28l-18.2-26.5,43.33,41.47a6.19,6.19,0,0,0,7.47.68,4.4,4.4,0,0,0,1.38-1.48,4,4,0,0,0-.47-4.91h0c-2.27-2.58.84-6.15,3.74-4.68l14.75,10a4.34,4.34,0,0,0,5.33-.45A3.32,3.32,0,0,0,3372.63,1474.39Z" transform="translate(-35.12 -75.19)"/><path class="cls-21" d="M3494.18,1497.84l-2.73-29.35a2.91,2.91,0,0,0-2.22-2.58,2.86,2.86,0,0,0-3.49,2.37l-3.94,29.32a107.82,107.82,0,0,1-14.73,42.56,22,22,0,0,0-3.32,11.21l-.34,16.62,46.26.91.34-16.63a22,22,0,0,0-2.86-11.33C3499.67,1527.7,3495.58,1512.89,3494.18,1497.84Z" transform="translate(-35.12 -75.19)"/><path class="cls-22" d="M3495.38,1760.89a211.26,211.26,0,0,1-40.26,40c-73.95,54.88-165.72,72.84-243.43,56.57-75.75-15.46-138.36-62.9-173-133.91a10.11,10.11,0,0,1,6-14.09l.13,0a28.73,28.73,0,0,1,7.07-1.26,10.5,10.5,0,0,1,8.7,3.88c94.26,117.1,254.67,84.24,320.24-10.06a461.94,461.94,0,0,0,56.59-103.72c14.87-34.53,24.42-68.84,48.93-67,19.36,1,44.38,34.07,50.12,80.68C3543.06,1658.05,3530.42,1717.75,3495.38,1760.89Z" transform="translate(-35.12 -75.19)"/></svg>